<svg width="110" height="110" viewBox="0 0 110 110" fill="none" xmlns="http://www.w3.org/2000/svg">
<g clip-path="url(#clip0_14_121)">
<path fill-rule="evenodd" clip-rule="evenodd" d="M3.02046 23.6455C4.95443 21.7115 7.57746 20.625 10.3125 20.625H99.6875C102.423 20.625 105.046 21.7115 106.98 23.6455C108.914 25.5794 110 28.2025 110 30.9375V41.25C110 42.1617 109.638 43.036 108.993 43.6807C108.349 44.3253 107.474 44.6875 106.562 44.6875C103.827 44.6875 101.204 45.774 99.2705 47.708C97.3365 49.6419 96.25 52.265 96.25 55C96.25 57.735 97.3365 60.3581 99.2705 62.292C101.204 64.226 103.827 65.3125 106.562 65.3125C107.474 65.3125 108.349 65.6747 108.993 66.3193C109.638 66.964 110 67.8383 110 68.75V79.0625C110 81.7975 108.914 84.4206 106.98 86.3545C105.046 88.2885 102.423 89.375 99.6875 89.375H10.3125C7.57746 89.375 4.95443 88.2885 3.02046 86.3545C1.0865 84.4206 0 81.7975 0 79.0625V68.75C0 67.8383 0.362166 66.964 1.00682 66.3193C1.65148 65.6747 2.52582 65.3125 3.4375 65.3125C6.17254 65.3125 8.79557 64.226 10.7295 62.292C12.6635 60.3581 13.75 57.735 13.75 55C13.75 52.265 12.6635 49.6419 10.7295 47.708C8.79557 45.774 6.17254 44.6875 3.4375 44.6875C2.52582 44.6875 1.65148 44.3253 1.00682 43.6807C0.362166 43.036 0 42.1617 0 41.25V30.9375C0 28.2025 1.0865 25.5794 3.02046 23.6455ZM75.969 79.0658C73.3042 79.0758 66.0465 79.1031 54.9998 79.0625C41.7913 79.0139 30.9999 68.2721 30.9999 55C30.9999 41.7279 41.7277 30.9375 54.9998 30.9375C68.2719 30.9375 78.9998 41.5893 78.9998 55C78.9998 68.4107 68.4998 75 68.4998 75H76.9997C77.9997 75 78.9827 75.8956 78.9997 77C79.017 78.1218 77.9997 79.0625 76.9997 79.0625C76.8361 79.0625 76.4905 79.0638 75.969 79.0658ZM55 70.5C58.0376 70.5 60.5 68.0376 60.5 65C60.5 61.9624 58.0374 59.4999 54.9998 59.5C51.9623 59.5001 49.5 61.9625 49.5 65C49.5 68.0376 51.9624 70.5 55 70.5ZM65 60.5C68.0376 60.5 70.5 58.0376 70.5 55C70.5 51.9624 68.0376 49.5 65 49.5C61.9624 49.5 59.5 51.9624 59.5 55C59.5 58.0376 61.9624 60.5 65 60.5ZM45 60.5C48.0376 60.5 50.5 58.0376 50.5 55C50.5 51.9624 48.0376 49.5 45 49.5C41.9624 49.5 39.5 51.9624 39.5 55C39.5 58.0376 41.9624 60.5 45 60.5ZM60.5 45C60.5089 41.9624 58.0376 39.5 55 39.5C51.9624 39.5 49.4912 41.9624 49.5 45C49.5088 48.0376 51.9944 50.4944 55.0319 50.468C58.0518 50.4592 60.4912 48.0199 60.5 45Z" fill="white"/>
</g>
<defs>
<clipPath id="clip0_14_121">
<rect width="110" height="110" fill="white"/>
</clipPath>
</defs>
</svg>
