<svg width="118" height="118" viewBox="0 0 118 118" fill="none" xmlns="http://www.w3.org/2000/svg">
<g clip-path="url(#clip0_11_64)">
<path d="M11.0625 22.125C8.12854 22.125 5.31475 23.2905 3.24013 25.3651C1.16551 27.4398 0 30.2535 0 33.1875L0 44.25C0 45.228 0.388503 46.1659 1.08004 46.8575C1.77158 47.549 2.70951 47.9375 3.6875 47.9375C6.62146 47.9375 9.43525 49.103 11.5099 51.1776C13.5845 53.2523 14.75 56.066 14.75 59C14.75 61.934 13.5845 64.7477 11.5099 66.8224C9.43525 68.897 6.62146 70.0625 3.6875 70.0625C2.70951 70.0625 1.77158 70.451 1.08004 71.1425C0.388503 71.8341 0 72.772 0 73.75L0 84.8125C0 87.7465 1.16551 90.5602 3.24013 92.6349C5.31475 94.7095 8.12854 95.875 11.0625 95.875H106.938C109.871 95.875 112.685 94.7095 114.76 92.6349C116.834 90.5602 118 87.7465 118 84.8125V73.75C118 72.772 117.611 71.8341 116.92 71.1425C116.228 70.451 115.29 70.0625 114.312 70.0625C111.379 70.0625 108.565 68.897 106.49 66.8224C104.416 64.7477 103.25 61.934 103.25 59C103.25 56.066 104.416 53.2523 106.49 51.1776C108.565 49.103 111.379 47.9375 114.312 47.9375C115.29 47.9375 116.228 47.549 116.92 46.8575C117.611 46.1659 118 45.228 118 44.25V33.1875C118 30.2535 116.834 27.4398 114.76 25.3651C112.685 23.2905 109.871 22.125 106.938 22.125H11.0625Z" fill="white"/>
<mask id="mask0_11_64" style="mask-type:luminance" maskUnits="userSpaceOnUse" x="33" y="33" width="52" height="52">
<path d="M59 82.6C72.0343 82.6 82.6 72.0343 82.6 59C82.6 45.9657 72.0343 35.4 59 35.4C45.9657 35.4 35.4 45.9657 35.4 59C35.4 72.0343 45.9657 82.6 59 82.6Z" fill="white" stroke="white" stroke-width="4.72" stroke-linejoin="round"/>
<path d="M59 51.92C59.9389 51.92 60.8393 51.547 61.5032 50.8832C62.167 50.2193 62.54 49.3189 62.54 48.38C62.54 47.4411 62.167 46.5407 61.5032 45.8768C60.8393 45.213 59.9389 44.84 59 44.84C58.0611 44.84 57.1607 45.213 56.4968 45.8768C55.833 46.5407 55.46 47.4411 55.46 48.38C55.46 49.3189 55.833 50.2193 56.4968 50.8832C57.1607 51.547 58.0611 51.92 59 51.92ZM59 73.16C59.9389 73.16 60.8393 72.787 61.5032 72.1232C62.167 71.4593 62.54 70.5589 62.54 69.62C62.54 68.6811 62.167 67.7807 61.5032 67.1168C60.8393 66.453 59.9389 66.08 59 66.08C58.0611 66.08 57.1607 66.453 56.4968 67.1168C55.833 67.7807 55.46 68.6811 55.46 69.62C55.46 70.5589 55.833 71.4593 56.4968 72.1232C57.1607 72.787 58.0611 73.16 59 73.16ZM48.38 62.54C49.3189 62.54 50.2193 62.167 50.8832 61.5032C51.547 60.8393 51.92 59.9389 51.92 59C51.92 58.0611 51.547 57.1607 50.8832 56.4968C50.2193 55.833 49.3189 55.46 48.38 55.46C47.4411 55.46 46.5407 55.833 45.8768 56.4968C45.213 57.1607 44.84 58.0611 44.84 59C44.84 59.9389 45.213 60.8393 45.8768 61.5032C46.5407 62.167 47.4411 62.54 48.38 62.54ZM69.62 62.54C70.5589 62.54 71.4593 62.167 72.1232 61.5032C72.787 60.8393 73.16 59.9389 73.16 59C73.16 58.0611 72.787 57.1607 72.1232 56.4968C71.4593 55.833 70.5589 55.46 69.62 55.46C68.6811 55.46 67.7807 55.833 67.1168 56.4968C66.453 57.1607 66.08 58.0611 66.08 59C66.08 59.9389 66.453 60.8393 67.1168 61.5032C67.7807 62.167 68.6811 62.54 69.62 62.54Z" fill="black" stroke="black" stroke-width="4.72" stroke-linejoin="round"/>
<path d="M59 82.6H82.6" stroke="white" stroke-width="4.72" stroke-linecap="round"/>
</mask>
<g mask="url(#mask0_11_64)">
<path d="M30.68 30.68H87.32V87.32H30.68V30.68Z" fill="black"/>
</g>
</g>
<defs>
<clipPath id="clip0_11_64">
<rect width="118" height="118" fill="white"/>
</clipPath>
</defs>
</svg>
